<?xml version="1.0" standalone="no"?>
<!DOCTYPE svg PUBLIC "-//W3C//DTD SVG 20010904//EN"
 "http://www.w3.org/TR/2001/REC-SVG-20010904/DTD/svg10.dtd">
<svg version="1.0" xmlns="http://www.w3.org/2000/svg"
 width="800.000000pt" height="800.000000pt" viewBox="0 0 800.000000 800.000000"
 preserveAspectRatio="xMidYMid meet">
<metadata>
Created by potrace 1.14, written by Peter Selinger 2001-2017
</metadata>
<g transform="translate(0.000000,800.000000) scale(0.100000,-0.100000)"
fill="#000000" stroke="none">
<path d="M479 7985 c-232 -57 -409 -234 -463 -465 -14 -57 -15 -227 -13 -1385
1 -726 6 -1331 9 -1344 47 -159 119 -269 234 -359 75 -58 225 -119 294 -120 8
0 600 -1 1315 -2 1407 -2 1379 -1 1544 -57 71 -23 149 -59 246 -112 93 -51
251 -182 340 -282 151 -169 275 -411 311 -609 4 -19 8 -620 10 -1335 1 -715 5
-1329 7 -1365 18 -232 196 -448 432 -523 l70 -22 1340 0 1340 0 73 24 c213 70
366 237 417 456 22 96 22 2613 0 2720 -47 223 -229 413 -450 468 -73 18 43 17
-1520 21 -709 1 -1306 6 -1325 10 -19 4 -44 9 -55 11 -412 70 -719 309 -854
663 -32 82 -56 171 -66 237 -3 23 -8 52 -12 65 -4 14 -8 624 -9 1355 -2 732
-5 1364 -7 1405 -15 236 -186 450 -427 533 l-65 22 -1330 2 c-1092 1 -1340 -1
-1386 -12z"/>
<path d="M4786 7985 c-91 -20 -213 -87 -285 -156 -53 -52 -131 -155 -131 -174
0 -3 -9 -25 -19 -48 -42 -91 -42 -117 -42 -1456 1 -707 3 -1300 5 -1318 29
-198 172 -388 355 -470 123 -55 74 -53 1478 -54 714 0 1316 3 1338 6 185 31
360 160 444 327 75 152 71 58 68 1538 l-2 1325 -27 73 c-63 173 -173 294 -333
367 -31 15 -65 28 -75 30 -10 2 -35 8 -56 14 -61 17 -2640 13 -2718 -4z"/>
<path d="M637 3693 c-1 -1 -29 -2 -62 -4 -208 -9 -408 -141 -504 -332 -75
-150 -71 -58 -68 -1537 l2 -1325 27 -73 c15 -41 42 -98 60 -129 76 -125 223
-234 368 -272 72 -19 119 -20 1381 -20 1258 -1 1309 0 1382 18 196 51 346 180
424 366 19 46 24 63 38 135 6 27 7 2600 1 2640 -12 94 -52 192 -111 275 -92
129 -225 215 -380 245 -43 8 -414 12 -1308 13 -687 1 -1249 1 -1250 0z"/>
</g>
</svg>
