<?xml version="1.0" standalone="no"?>
<!DOCTYPE svg PUBLIC "-//W3C//DTD SVG 20010904//EN"
 "http://www.w3.org/TR/2001/REC-SVG-20010904/DTD/svg10.dtd">
<svg version="1.0" xmlns="http://www.w3.org/2000/svg"
 width="332.000000pt" height="332.000000pt" viewBox="0 0 332.000000 332.000000"
 preserveAspectRatio="xMidYMid meet">
<metadata>
Created by potrace 1.11, written by Peter Selinger 2001-2013
</metadata>
<g transform="translate(0.000000,332.000000) scale(0.100000,-0.100000)"
fill="#000000" stroke="none">
<path d="M2759 2726 c-2 -2 -35 -6 -74 -10 -179 -16 -341 -73 -500 -177 -201
-130 -409 -359 -509 -556 -77 -155 -136 -344 -153 -494 -9 -83 -8 -286 2 -369
35 -294 183 -507 346 -501 111 4 237 101 302 233 48 96 74 209 92 393 16 155
66 267 158 350 94 85 200 132 474 209 169 47 293 126 339 216 59 116 51 379
-15 508 -53 105 -191 176 -366 188 -44 3 -83 8 -86 10 -3 2 -8 2 -10 0z"/>
<path d="M717 2044 c-1 -1 -30 -5 -64 -8 -173 -17 -380 -118 -477 -235 -185
-222 -168 -493 39 -604 33 -18 57 -21 140 -21 55 0 147 4 205 8 172 14 296
-16 412 -99 27 -20 88 -77 136 -128 328 -346 384 -389 510 -393 35 -2 75 2 88
8 23 11 23 11 -30 64 -104 103 -162 213 -207 390 -34 135 -44 223 -44 374 1
126 10 226 30 309 7 33 4 37 -36 73 -158 139 -343 231 -514 254 -48 6 -183 12
-188 8z"/>
</g>
</svg>
