<?xml version="1.0" standalone="no"?>
<!DOCTYPE svg PUBLIC "-//W3C//DTD SVG 20010904//EN"
 "http://www.w3.org/TR/2001/REC-SVG-20010904/DTD/svg10.dtd">
<svg version="1.0" xmlns="http://www.w3.org/2000/svg"
 width="1184.000000pt" height="1184.000000pt" viewBox="0 0 1184.000000 1184.000000"
 preserveAspectRatio="xMidYMid meet">
<metadata>
Created by potrace 1.14, written by Peter Selinger 2001-2017
</metadata>
<g transform="translate(0.000000,1184.000000) scale(0.100000,-0.100000)"
fill="#000000" stroke="none">
<path d="M4595 9743 c-66 -19 -128 -45 -137 -58 -4 -5 -8 -7 -8 -2 0 10 -50
-22 -71 -45 -9 -10 -20 -18 -24 -18 -9 0 -94 -92 -111 -122 -32 -54 -74 -145
-78 -168 -2 -14 -5 -26 -7 -27 -1 -2 -2 -11 -3 -20 -1 -10 -4 -22 -7 -28 -7
-13 -3 -2521 4 -2555 11 -50 15 -66 33 -110 24 -60 79 -147 123 -193 65 -67
203 -149 276 -163 11 -2 34 -7 50 -11 17 -3 602 -8 1300 -9 699 -1 1284 -4
1300 -7 120 -21 216 -52 331 -108 69 -33 208 -119 224 -138 3 -4 25 -22 50
-41 25 -19 48 -39 52 -45 4 -5 38 -43 77 -82 38 -40 68 -73 65 -73 -2 0 14
-23 35 -51 22 -29 45 -64 53 -78 7 -14 16 -28 19 -31 11 -9 89 -179 95 -207 1
-6 7 -27 13 -45 37 -113 38 -146 38 -1428 0 -687 4 -1271 8 -1297 34 -227 202
-414 440 -487 44 -14 201 -15 1335 -13 707 2 1292 5 1300 8 8 3 36 12 63 19
26 7 47 16 47 20 0 3 6 7 13 7 26 0 107 55 164 112 70 70 74 75 104 132 13 24
27 46 30 49 3 3 9 16 12 30 3 14 13 53 21 87 14 54 16 208 13 1330 -1 697 -5
1275 -8 1283 -3 8 -13 40 -24 70 -17 52 -64 138 -93 170 -105 119 -198 177
-342 212 -31 8 -443 12 -1345 13 -715 1 -1318 5 -1340 9 -199 31 -289 58 -429
128 -99 49 -195 116 -251 174 -62 64 -95 104 -95 113 0 5 -3 11 -7 13 -11 4
-63 85 -63 97 0 5 -7 14 -15 21 -8 6 -14 15 -13 18 1 4 -6 25 -16 47 -37 84
-69 196 -81 285 -3 25 -8 63 -12 85 -3 22 -7 623 -9 1335 -1 712 -4 1306 -7
1320 -23 129 -97 259 -191 339 -15 14 -34 29 -40 35 -29 26 -110 67 -185 94
-42 15 -170 17 -1336 18 -1098 2 -1297 0 -1340 -13z"/>
<path d="M8789 9755 c-3 -2 -23 -7 -45 -11 -21 -3 -51 -12 -66 -20 -15 -8 -34
-14 -42 -14 -8 0 -16 -3 -18 -7 -1 -5 -21 -17 -43 -28 -42 -21 -195 -167 -195
-186 0 -6 -8 -23 -19 -37 -23 -34 -59 -139 -67 -195 -8 -60 -8 -2483 1 -2536
25 -162 116 -308 250 -401 53 -36 137 -74 190 -86 6 -1 24 -5 40 -9 43 -10
2500 -12 2560 -2 28 4 57 11 65 14 8 3 19 5 23 4 4 0 42 16 85 36 55 27 99 59
155 113 42 41 77 78 77 81 0 4 15 34 33 66 70 128 67 65 67 1453 0 1272 0
1246 -33 1375 -9 33 -63 128 -101 177 -72 91 -218 182 -330 206 -35 7 -2580
15 -2587 7z"/>
<path d="M489 5614 c-101 -18 -164 -45 -253 -110 -48 -35 -136 -130 -145 -157
-2 -7 -7 -14 -11 -17 -10 -8 -59 -131 -67 -170 -5 -19 -8 -615 -8 -1325 l0
-1290 28 -70 c50 -125 125 -222 229 -293 44 -30 83 -49 102 -50 5 0 12 -5 15
-10 3 -5 38 -17 76 -26 63 -14 202 -15 1340 -13 699 2 1281 6 1295 9 14 3 42
13 63 22 20 9 37 14 37 11 0 -3 18 6 40 20 22 14 42 25 45 25 10 0 35 22 104
90 88 87 153 213 167 325 7 54 6 2499 -1 2539 -4 22 -11 50 -16 63 -5 13 -6
23 -3 23 4 0 -1 11 -10 25 -9 14 -14 25 -11 25 9 0 -25 61 -63 115 -42 58 -90
105 -150 147 -45 31 -152 82 -152 72 0 -4 -6 -2 -12 4 -7 5 -33 13 -58 18 -74
13 -2506 11 -2581 -2z"/>
</g>
</svg>
